<?xml version="1.0" encoding="UTF-8"?>
<!DOCTYPE svg PUBLIC "-//W3C//DTD SVG 1.1//EN" "http://www.w3.org/Graphics/SVG/1.1/DTD/svg11.dtd">
<!-- Creator: CorelDRAW -->
<svg xmlns="http://www.w3.org/2000/svg" xml:space="preserve" width="162.221mm" height="182.629mm" version="1.1" style="shape-rendering:geometricPrecision; text-rendering:geometricPrecision; image-rendering:optimizeQuality; fill-rule:evenodd; clip-rule:evenodd"
viewBox="0 0 554.05 623.76"
 xmlns:xlink="http://www.w3.org/1999/xlink"
 xmlns:xodm="http://www.corel.com/coreldraw/odm/2003">
 <defs>
  <style type="text/css">
   <![CDATA[
    .fil2 {fill:white}
    .fil0 {fill:url(#id0)}
    .fil1 {fill:url(#id1)}
   ]]>
  </style>
  <linearGradient id="id0" gradientUnits="userSpaceOnUse" x1="249.66" y1="482.44" x2="264.45" y2="338.28">
   <stop offset="0" style="stop-opacity:1; stop-color:#68D946"/>
   <stop offset="0.670588" style="stop-opacity:1; stop-color:#52B33E"/>
   <stop offset="1" style="stop-opacity:1; stop-color:#3C8D36"/>
  </linearGradient>
  <linearGradient id="id1" gradientUnits="userSpaceOnUse" xlink:href="#id0" x1="249.66" y1="26.4" x2="264.45" y2="170.56">
  </linearGradient>
 </defs>
 <g id="Слой_x0020_1">
  <metadata id="CorelCorpID_0Corel-Layer"/>
  <g id="_2042854021712">
   <rect class="fil0" x="-0" y="311.88" width="554.05" height="311.88"/>
   <rect class="fil1" x="-0" width="554.05" height="311.88"/>
   <path class="fil2" d="M-0 370.58l0 -18.8 0 -39.91 0 -39.91 0 -18.8 0 -71.18c6.25,1.03 4.12,0.44 16.07,2.9l4.24 -21.37 5.64 23.48c14.58,3.49 28.12,9.11 47.82,14.39l1.91 -13.96 0.02 14.47c2.72,0.71 5.55,1.41 8.52,2.1 11.63,2.7 26.41,4.88 41.08,6.25l2.2 -9.14 1.89 9.5c18.75,1.57 36.84,1.78 47.46,0.04 13.14,-2.15 27.4,-5.59 40.93,-11.02l-2.49 -18.52 8.75 15.83c4.53,-2.08 8.94,-4.4 13.15,-7 3.62,-2.23 7.29,-4.52 10.98,-6.82l-0.34 -0.11 -1.15 -7.63c0,0 3.74,1.96 7.18,4.19 10.06,-6.3 20.18,-12.69 29.79,-18.69l-0.81 -13.83 4.34 11.64c1.9,-1.18 3.77,-2.34 5.61,-3.48 17.34,-10.71 32.24,-19.48 47.64,-26.49 4.48,-2.04 9,-3.93 13.67,-5.69l-9.67 -23.11 12.93 21.91c4.13,-1.49 8.39,-2.88 12.83,-4.19l2.28 -15.4 5.56 13.22c4.48,-1.17 9.18,-2.28 14.14,-3.33 20.46,-4.34 45.47,-7.78 67.15,-9.5 21.68,-1.72 40.02,-1.72 56.75,-1.33 14.51,0.34 27.8,0.96 38,6.81l0 145.08 0 18.8 0 39.91 0 39.91 0 18.8 0 145.08c-10.2,5.85 -23.49,6.48 -38,6.81 -16.73,0.39 -35.08,0.39 -56.75,-1.33 -21.68,-1.72 -46.69,-5.16 -67.15,-9.5 -4.96,-1.05 -9.66,-2.16 -14.14,-3.33l-5.56 13.22 -2.28 -15.4c-4.45,-1.31 -8.7,-2.7 -12.83,-4.19l-12.93 21.91 9.67 -23.11c-4.67,-1.76 -9.19,-3.65 -13.67,-5.69 -15.4,-7.01 -30.3,-15.78 -47.64,-26.49 -1.84,-1.14 -3.72,-2.3 -5.61,-3.48l-4.34 11.64 0.81 -13.83c-9.61,-6 -19.73,-12.39 -29.79,-18.69 -3.44,2.22 -7.18,4.19 -7.18,4.19l1.15 -7.63 0.34 -0.11c-3.69,-2.31 -7.36,-4.59 -10.98,-6.82 -4.21,-2.6 -8.62,-4.93 -13.15,-7l-8.75 15.83 2.49 -18.52c-13.52,-5.44 -27.79,-8.87 -40.93,-11.02 -10.62,-1.74 -28.71,-1.53 -47.46,0.04l-1.89 9.5 -2.2 -9.14c-14.67,1.38 -29.45,3.55 -41.08,6.25 -2.97,0.69 -5.8,1.39 -8.52,2.1l-0.02 14.47 -1.91 -13.96c-19.71,5.28 -33.24,10.9 -47.82,14.39l-5.64 23.48 -4.24 -21.37c-11.95,2.46 -9.83,1.87 -16.07,2.9l0 -71.18z"/>
  </g>
 </g>
</svg>
